<mxfile host="app.diagrams.net" agent="Mozilla/5.0 (Windows NT 10.0; Win64; x64) AppleWebKit/537.36 (KHTML, like Gecko) Chrome/132.0.0.0 Safari/537.36" version="26.0.13">
  <diagram name="Page-1" id="qEPpOTGTCNY5_p1U7Fa_">
    <mxGraphModel dx="1674" dy="746" grid="1" gridSize="10" guides="1" tooltips="1" connect="1" arrows="1" fold="1" page="1" pageScale="1" pageWidth="850" pageHeight="1100" math="0" shadow="0">
      <root>
        <mxCell id="0" />
        <mxCell id="1" parent="0" />
        <mxCell id="QOCwkZVWmm1gbLnobCOZ-17" value="" style="rounded=1;whiteSpace=wrap;html=1;" vertex="1" parent="1">
          <mxGeometry x="470" y="150" width="280" height="300" as="geometry" />
        </mxCell>
        <mxCell id="QOCwkZVWmm1gbLnobCOZ-15" value="" style="rounded=1;whiteSpace=wrap;html=1;" vertex="1" parent="1">
          <mxGeometry x="139" y="150" width="280" height="300" as="geometry" />
        </mxCell>
        <mxCell id="QOCwkZVWmm1gbLnobCOZ-1" value="" style="shape=mxgraph.cisco.routers.router;sketch=0;html=1;pointerEvents=1;dashed=0;fillColor=#036897;strokeColor=#ffffff;strokeWidth=2;verticalLabelPosition=bottom;verticalAlign=top;align=center;outlineConnect=0;" vertex="1" parent="1">
          <mxGeometry x="240" y="280" width="78" height="53" as="geometry" />
        </mxCell>
        <mxCell id="QOCwkZVWmm1gbLnobCOZ-2" value="" style="shape=mxgraph.cisco.routers.router;sketch=0;html=1;pointerEvents=1;dashed=0;fillColor=#036897;strokeColor=#ffffff;strokeWidth=2;verticalLabelPosition=bottom;verticalAlign=top;align=center;outlineConnect=0;" vertex="1" parent="1">
          <mxGeometry x="560" y="280" width="78" height="53" as="geometry" />
        </mxCell>
        <mxCell id="QOCwkZVWmm1gbLnobCOZ-3" value="" style="endArrow=none;html=1;rounded=0;exitX=1;exitY=0.5;exitDx=0;exitDy=0;exitPerimeter=0;entryX=0;entryY=0.5;entryDx=0;entryDy=0;entryPerimeter=0;" edge="1" parent="1" source="QOCwkZVWmm1gbLnobCOZ-1" target="QOCwkZVWmm1gbLnobCOZ-2">
          <mxGeometry width="50" height="50" relative="1" as="geometry">
            <mxPoint x="400" y="410" as="sourcePoint" />
            <mxPoint x="450" y="360" as="targetPoint" />
          </mxGeometry>
        </mxCell>
        <mxCell id="QOCwkZVWmm1gbLnobCOZ-4" value="" style="endArrow=none;html=1;rounded=0;entryX=0;entryY=0.5;entryDx=0;entryDy=0;entryPerimeter=0;" edge="1" parent="1" target="QOCwkZVWmm1gbLnobCOZ-1">
          <mxGeometry width="50" height="50" relative="1" as="geometry">
            <mxPoint x="190" y="307" as="sourcePoint" />
            <mxPoint x="450" y="360" as="targetPoint" />
          </mxGeometry>
        </mxCell>
        <mxCell id="QOCwkZVWmm1gbLnobCOZ-5" value="HQ" style="text;html=1;align=center;verticalAlign=middle;whiteSpace=wrap;rounded=0;fontStyle=1" vertex="1" parent="1">
          <mxGeometry x="249" y="230" width="60" height="30" as="geometry" />
        </mxCell>
        <mxCell id="QOCwkZVWmm1gbLnobCOZ-6" value="ISP" style="text;html=1;align=center;verticalAlign=middle;whiteSpace=wrap;rounded=0;" vertex="1" parent="1">
          <mxGeometry x="569" y="230" width="60" height="30" as="geometry" />
        </mxCell>
        <mxCell id="QOCwkZVWmm1gbLnobCOZ-7" value="192.168.1.0/24" style="text;html=1;align=center;verticalAlign=middle;whiteSpace=wrap;rounded=0;" vertex="1" parent="1">
          <mxGeometry x="140" y="270" width="80" height="30" as="geometry" />
        </mxCell>
        <mxCell id="QOCwkZVWmm1gbLnobCOZ-8" value="" style="ellipse;whiteSpace=wrap;html=1;aspect=fixed;" vertex="1" parent="1">
          <mxGeometry x="180" y="301.5" width="10" height="10" as="geometry" />
        </mxCell>
        <mxCell id="QOCwkZVWmm1gbLnobCOZ-9" value="1.1.1.2/30" style="text;html=1;align=center;verticalAlign=middle;whiteSpace=wrap;rounded=0;" vertex="1" parent="1">
          <mxGeometry x="320" y="270" width="60" height="30" as="geometry" />
        </mxCell>
        <mxCell id="QOCwkZVWmm1gbLnobCOZ-10" value="1.1.1.1/30" style="text;html=1;align=center;verticalAlign=middle;whiteSpace=wrap;rounded=0;" vertex="1" parent="1">
          <mxGeometry x="490" y="270" width="60" height="30" as="geometry" />
        </mxCell>
        <mxCell id="QOCwkZVWmm1gbLnobCOZ-12" value="8.8.8.8/32" style="text;html=1;align=center;verticalAlign=middle;whiteSpace=wrap;rounded=0;" vertex="1" parent="1">
          <mxGeometry x="650" y="270" width="80" height="30" as="geometry" />
        </mxCell>
        <mxCell id="QOCwkZVWmm1gbLnobCOZ-13" value="" style="ellipse;whiteSpace=wrap;html=1;aspect=fixed;" vertex="1" parent="1">
          <mxGeometry x="690" y="301.5" width="10" height="10" as="geometry" />
        </mxCell>
        <mxCell id="QOCwkZVWmm1gbLnobCOZ-14" value="" style="endArrow=none;html=1;rounded=0;entryX=0;entryY=0.5;entryDx=0;entryDy=0;entryPerimeter=0;" edge="1" parent="1">
          <mxGeometry width="50" height="50" relative="1" as="geometry">
            <mxPoint x="638" y="306" as="sourcePoint" />
            <mxPoint x="688" y="306" as="targetPoint" />
          </mxGeometry>
        </mxCell>
        <mxCell id="QOCwkZVWmm1gbLnobCOZ-16" value="BGP AS Group 65001" style="text;html=1;align=center;verticalAlign=middle;whiteSpace=wrap;rounded=0;" vertex="1" parent="1">
          <mxGeometry x="223.5" y="160" width="111" height="30" as="geometry" />
        </mxCell>
        <mxCell id="QOCwkZVWmm1gbLnobCOZ-18" value="BGP AS Group&lt;div&gt;65000&lt;/div&gt;" style="text;html=1;align=center;verticalAlign=middle;whiteSpace=wrap;rounded=0;" vertex="1" parent="1">
          <mxGeometry x="564" y="160" width="92" height="30" as="geometry" />
        </mxCell>
      </root>
    </mxGraphModel>
  </diagram>
</mxfile>
